<svg width="417" height="677" viewBox="0 0 417 677" fill="none" xmlns="http://www.w3.org/2000/svg">
<path d="M17.7987 1.10343e-05C13.158 -0.00519697 8.70492 1.83334 5.41839 5.11974C2.13719 8.40094 0.293323 12.8593 0.298657 17.5V659.167C0.298657 668.833 8.13719 676.667 17.7987 676.667C27.4653 676.667 35.2987 668.833 35.2987 659.167V372.513C64.0013 371.503 92.3093 365.503 118.949 354.779C147.381 343.419 177.824 337.94 208.433 338.68C239.043 337.94 269.485 343.42 297.917 354.779C330.063 367.596 364.469 373.789 399.068 372.981C403.709 372.987 408.162 371.143 411.448 367.862C414.729 364.58 416.573 360.122 416.568 355.481V87.268C416.573 82.6273 414.729 78.1691 411.448 74.8877C408.162 71.6065 403.709 69.7627 399.068 69.768C368.495 70.5128 338.089 65.0336 309.699 53.6693C277.485 40.9611 243.059 34.8147 208.433 35.5867C173.808 34.8158 139.381 40.9616 107.168 53.6693C84.256 62.8724 59.9653 68.1587 35.2987 69.3053V17.5027C35.3091 12.862 33.4653 8.40375 30.1841 5.12241C26.8977 1.83601 22.4445 -0.00265455 17.7987 0.00267878V1.10343e-05Z" fill="black"/>
</svg>
