<svg width="747" height="747" viewBox="0 0 747 747" fill="none" xmlns="http://www.w3.org/2000/svg">
<path d="M724.603 351.27H625.577C621.248 299.3 600.894 249.958 567.322 210.056L589.738 187.728L589.743 187.723C593.993 183.609 596.41 177.952 596.451 172.035C596.498 166.119 594.16 160.431 589.967 156.254C585.78 152.072 580.087 149.754 574.164 149.811C568.248 149.874 562.602 152.306 558.498 156.572L536.17 178.9C496.263 145.326 446.919 124.973 394.956 120.649V22.061C394.956 14.1807 390.748 6.89433 383.92 2.957C377.097 -0.985667 368.685 -0.985667 361.857 2.957C355.029 6.89447 350.826 14.181 350.826 22.061V120.998C299.023 125.425 249.873 145.805 210.146 179.342L187.813 157.009C182.219 151.587 174.177 149.519 166.657 151.572C159.141 153.618 153.261 159.483 151.193 166.993C149.12 174.508 151.167 182.556 156.573 188.165L178.989 210.581C145.614 250.368 125.39 299.513 121.088 351.274H22.061C14.1807 351.274 6.89433 355.477 2.957 362.305C-0.985667 369.134 -0.985667 377.54 2.957 384.368C6.89447 391.196 14.181 395.399 22.061 395.399H121.088C125.608 447.165 145.948 496.279 179.342 536.093L157.014 558.421H157.009C152.905 562.582 150.603 568.197 150.603 574.041C150.603 579.89 152.905 585.504 157.009 589.666C161.16 593.791 166.78 596.109 172.634 596.109C178.489 596.109 184.103 593.791 188.254 589.666L210.582 567.338V567.333C250.389 600.729 299.504 621.067 351.276 625.587V724.614C351.276 732.494 355.479 739.781 362.307 743.718C369.135 747.661 377.542 747.661 384.37 743.718C391.198 739.781 395.401 732.494 395.401 724.614V625.587C447.204 621.16 496.36 600.781 536.094 567.249L558.51 589.665C562.651 593.805 568.276 596.128 574.13 596.107C579.969 596.144 585.568 593.821 589.666 589.665C593.817 585.524 596.145 579.904 596.145 574.039C596.145 568.18 593.817 562.56 589.666 558.419L567.338 536.091H567.333C600.869 496.362 621.25 447.206 625.677 395.398H724.614C732.495 395.398 739.781 391.195 743.718 384.367C747.661 377.539 747.661 369.132 743.718 362.304C739.781 355.476 732.494 351.273 724.614 351.273L724.603 351.27ZM347.297 315.967V315.962C341.87 330.41 330.338 341.717 315.786 346.853C310.14 348.972 304.166 350.077 298.135 350.118C284.094 350.118 270.625 344.54 260.693 334.608C250.76 324.68 245.182 311.206 245.182 297.165C245.229 291.134 246.333 285.16 248.448 279.514C253.198 264.769 264.26 252.9 278.63 247.124C284.698 244.702 291.167 243.472 297.698 243.504C311.74 243.504 325.209 249.082 335.141 259.014C345.073 268.947 350.652 282.416 350.652 296.457C350.834 303.145 349.693 309.806 347.297 316.05L347.297 315.967Z" fill="black"/>
</svg>
